<?xml version="1.0" encoding="utf-8"?>
<!-- Generator: Adobe Illustrator 16.0.0, SVG Export Plug-In . SVG Version: 6.00 Build 0)  -->
<!DOCTYPE svg PUBLIC "-//W3C//DTD SVG 1.1//EN" "http://www.w3.org/Graphics/SVG/1.1/DTD/svg11.dtd">
<svg version="1.1" id="Layer_1" xmlns="http://www.w3.org/2000/svg" xmlns:xlink="http://www.w3.org/1999/xlink" x="0px" y="0px"
	 width="155.5px" height="154px" viewBox="0 0 155.5 154" enable-background="new 0 0 155.5 154" xml:space="preserve">
<g>
	<defs>
		<rect id="SVGID_1_" x="53.335" y="55.93" width="48.83" height="52.333"/>
	</defs>
	<clipPath id="SVGID_2_">
		<use xlink:href="#SVGID_1_"  overflow="visible"/>
	</clipPath>
	<path clip-path="url(#SVGID_2_)" fill="#000" d="M99.831,66.92c1.556-1.65,2.334-3.092,2.334-4.328s-0.895-2.656-2.678-4.257
		c-1.787-1.603-3.265-2.405-4.432-2.405s-2.575,0.916-4.223,2.748l-13.05,14.972L64.736,58.678
		c-1.604-1.832-3.011-2.748-4.225-2.748c-1.212,0-2.712,0.814-4.498,2.439c-1.784,1.625-2.679,3.033-2.679,4.223
		c0,1.191,0.801,2.634,2.403,4.328l13.805,15.178L55.738,97.275c-1.603,1.786-2.403,3.25-2.403,4.395s0.903,2.528,2.714,4.154
		c1.807,1.625,3.296,2.438,4.463,2.438s2.575-0.916,4.225-2.747l13.047-14.972l13.05,14.972c1.603,1.831,3.011,2.747,4.223,2.747
		c1.214,0,2.701-0.8,4.465-2.403c1.764-1.603,2.645-3,2.645-4.189c0-1.191-0.778-2.655-2.334-4.395L86.024,82.098L99.831,66.92z"/>
</g>
</svg>
